<?xml version="1.0" standalone="no"?>
<!DOCTYPE svg PUBLIC "-//W3C//DTD SVG 20010904//EN"
 "http://www.w3.org/TR/2001/REC-SVG-20010904/DTD/svg10.dtd">
<svg version="1.0" xmlns="http://www.w3.org/2000/svg"
 width="1763.000000pt" height="709.000000pt" viewBox="0 0 1763.000000 709.000000"
 preserveAspectRatio="xMidYMid meet">

<g transform="translate(0.000000,709.000000) scale(0.100000,-0.100000)"
fill="#000000" stroke="none">
<path d="M6880 6678 c-305 -225 -654 -483 -775 -572 l-220 -162 3 378 2 378
-220 0 -220 0 0 -538 0 -538 -2365 -1743 c-1301 -959 -2365 -1745 -2365 -1748
0 -3 12 3 28 13 15 10 1030 654 2257 1432 1227 778 2278 1446 2338 1483 l107
69 -2 -1198 -3 -1197 -349 -132 c-239 -91 -352 -129 -357 -122 -4 8 -33 -7
-82 -42 l-75 -54 434 -3 434 -2 0 -315 0 -315 -2205 0 -2205 0 0 -235 0 -235
4230 0 4230 0 0 1289 0 1290 58 21 c31 12 494 181 1029 376 l972 355 1638
-800 1638 -800 3 -865 2 -866 1075 0 1075 0 0 235 0 235 -840 0 -840 0 0 630
0 630 244 2 245 3 -2120 1017 -2120 1018 -407 -154 c-224 -85 -437 -166 -474
-180 l-68 -25 -1557 1199 c-1294 997 -1563 1200 -1588 1199 -23 0 -153 -91
-585 -411z m1485 -763 l890 -490 -839 -3 c-460 -1 -1212 -1 -1669 0 l-831 3
775 492 c426 270 777 491 780 490 3 -1 405 -222 894 -492z m1670 -920 c284
-157 526 -290 537 -296 11 -6 18 -12 16 -15 -8 -7 -1062 -404 -1075 -404 -11
0 -13 95 -13 500 0 278 4 500 9 500 5 0 241 -128 526 -285z m-2635 -1354 l0
-249 -157 -63 c-146 -58 -165 -63 -250 -67 l-93 -4 0 316 0 316 250 0 250 0 0
-249z m628 123 l-3 -127 -200 -78 c-109 -44 -200 -79 -202 -79 -2 0 -3 92 -3
205 l0 205 205 0 206 0 -3 -126z m2 -974 l0 -330 -205 0 -205 0 0 330 0 330
205 0 205 0 0 -330z m-630 -5 l0 -325 -255 0 -255 0 0 188 0 188 248 137 c136
75 250 137 255 137 4 0 7 -146 7 -325z"/>
<path d="M10930 2630 l0 -880 950 0 950 0 0 880 0 880 -950 0 -950 0 0 -880z
m830 325 l0 -205 -245 0 -245 0 0 205 0 205 245 0 245 0 0 -205z m720 0 l0
-205 -245 0 -245 0 0 205 0 205 245 0 245 0 0 -205z m-720 -670 l0 -245 -245
0 -245 0 0 245 0 245 245 0 245 0 0 -245z m720 0 l0 -245 -245 0 -245 0 0 245
0 245 245 0 245 0 0 -245z"/>
<path d="M6690 1109 c-173 -34 -299 -177 -337 -381 -17 -97 -12 -282 11 -367
51 -185 170 -295 351 -323 145 -22 308 21 404 107 48 43 97 140 107 208 l6 47
-125 0 -125 0 -7 -40 c-14 -81 -81 -130 -177 -130 -146 0 -198 91 -198 344 1
250 56 346 200 346 97 0 163 -51 176 -135 l6 -45 125 0 126 0 -7 46 c-16 118
-107 238 -218 289 -88 40 -217 54 -318 34z"/>
<path d="M9724 1106 c-159 -36 -267 -145 -320 -321 -26 -85 -26 -335 0 -420
49 -161 133 -256 274 -307 76 -28 266 -30 360 -4 85 23 160 57 200 90 l32 28
0 219 0 219 -215 0 -215 0 0 -85 0 -85 90 0 90 0 0 -85 0 -86 -42 -19 c-28
-13 -66 -20 -107 -20 -164 0 -231 101 -231 345 0 235 67 345 211 345 88 0 146
-42 166 -120 l9 -35 123 -3 123 -3 -7 43 c-16 97 -68 186 -137 237 -88 65
-277 96 -404 67z"/>
<path d="M14240 1109 c-173 -34 -299 -177 -337 -381 -17 -97 -12 -282 11 -367
51 -185 170 -295 351 -323 145 -22 308 21 404 107 48 43 97 140 107 208 l6 47
-125 0 -125 0 -7 -40 c-14 -81 -81 -130 -177 -130 -146 0 -198 91 -198 344 1
250 56 346 200 346 97 0 163 -51 176 -135 l6 -45 125 0 126 0 -7 46 c-16 118
-107 238 -218 289 -88 40 -217 54 -318 34z"/>
<path d="M15240 1106 c-181 -38 -310 -182 -345 -383 -42 -232 13 -455 140
-571 215 -197 573 -144 708 105 91 169 90 475 -3 637 -35 63 -120 145 -179
176 -89 45 -215 59 -321 36z m215 -220 c22 -17 48 -51 64 -85 25 -54 26 -63
26 -226 0 -163 -1 -172 -26 -226 -35 -75 -83 -111 -154 -117 -147 -12 -225
107 -225 343 0 173 41 284 120 327 53 29 146 21 195 -16z"/>
<path d="M480 1015 l0 -95 155 0 155 0 0 -440 0 -440 130 0 130 0 0 440 0 440
160 0 160 0 0 95 0 95 -445 0 -445 0 0 -95z"/>
<path d="M1500 575 l0 -535 125 0 125 0 0 535 0 535 -125 0 -125 0 0 -535z"/>
<path d="M1930 575 l0 -535 130 0 130 0 0 98 c0 53 -7 221 -15 372 -7 151 -12
276 -11 278 3 3 121 -335 210 -605 l48 -143 83 0 83 0 50 142 c27 79 84 248
127 376 42 128 79 231 82 229 2 -3 0 -90 -6 -193 -6 -104 -11 -271 -11 -371
l0 -183 125 0 125 0 0 535 0 535 -168 0 -167 0 -114 -360 c-63 -198 -118 -365
-121 -370 -4 -6 -60 156 -125 360 l-119 370 -168 0 -168 0 0 -535z"/>
<path d="M3240 575 l0 -535 130 0 130 0 2 328 3 328 185 -327 185 -328 128 -1
127 0 0 535 0 535 -125 0 -125 0 0 -332 c-1 -285 -3 -330 -14 -315 -8 10 -94
160 -192 333 l-178 314 -128 0 -128 0 0 -535z"/>
<path d="M4300 575 l0 -535 130 0 130 0 0 230 0 230 190 0 190 0 0 -230 0
-230 125 0 125 0 0 535 0 535 -125 0 -125 0 0 -210 0 -210 -190 0 -190 0 0
210 0 210 -130 0 -130 0 0 -535z"/>
<path d="M5650 1053 c-36 -97 -331 -904 -351 -961 l-18 -53 136 3 136 3 13 45
c7 25 20 71 29 102 l16 58 179 0 c162 0 179 -2 184 -17 3 -10 17 -57 31 -105
l26 -88 135 0 c74 0 134 2 134 4 0 4 -362 990 -381 1039 l-11 27 -118 0 -119
0 -21 -57z m198 -425 c29 -95 53 -176 52 -180 0 -5 -49 -8 -110 -8 -60 0 -110
3 -110 8 -1 14 104 352 110 352 3 0 29 -78 58 -172z"/>
<path d="M7352 708 l3 -403 29 -62 c52 -113 151 -181 296 -204 205 -31 386 40
458 182 46 89 51 146 52 552 l0 337 -130 0 -129 0 -3 -394 c-3 -381 -4 -396
-24 -423 -29 -40 -80 -63 -140 -63 -61 0 -107 27 -138 80 -20 33 -21 53 -24
418 l-3 382 -125 0 -125 0 3 -402z"/>
<path d="M8350 575 l0 -535 130 0 130 0 2 328 3 328 185 -327 185 -328 128 -1
127 0 0 535 0 535 -125 0 -125 0 0 -332 c-1 -285 -3 -330 -14 -315 -8 10 -94
160 -192 333 l-178 314 -128 0 -128 0 0 -535z"/>
<path d="M10430 575 l0 -537 278 4 c316 5 370 15 450 84 70 60 87 102 87 221
0 96 -1 103 -30 144 -18 25 -50 53 -77 67 l-48 25 44 27 c31 20 51 44 71 84
25 51 27 64 23 135 -8 132 -69 208 -207 253 -59 19 -95 22 -328 26 l-263 4 0
-537z m502 312 c46 -31 62 -111 32 -168 -22 -44 -67 -59 -179 -59 l-95 0 0
126 0 126 108 -4 c81 -3 113 -8 134 -21z m16 -417 c38 -23 52 -54 52 -113 0
-89 -49 -117 -205 -117 l-105 0 0 125 0 125 113 0 c94 0 117 -3 145 -20z"/>
<path d="M11680 1053 c-36 -97 -331 -904 -351 -961 l-18 -53 136 3 136 3 13
45 c7 25 20 71 29 102 l16 58 179 0 c162 0 179 -2 184 -17 3 -10 17 -57 31
-105 l26 -88 135 0 c74 0 134 2 134 4 0 4 -362 990 -381 1039 l-11 27 -118 0
-119 0 -21 -57z m198 -425 c29 -95 53 -176 52 -180 0 -5 -49 -8 -110 -8 -60 0
-110 3 -110 8 -1 14 104 352 110 352 3 0 29 -78 58 -172z"/>
<path d="M12420 575 l0 -535 130 0 130 0 2 328 3 328 185 -327 185 -328 128
-1 127 0 0 535 0 535 -125 0 -125 0 0 -332 c-1 -285 -3 -330 -14 -315 -8 10
-94 160 -192 333 l-178 314 -128 0 -128 0 0 -535z"/>
<path d="M15940 575 l0 -535 130 0 130 0 0 98 c0 53 -7 221 -15 372 -7 151
-12 276 -11 278 3 3 121 -335 210 -605 l48 -143 83 0 83 0 50 142 c27 79 84
248 127 376 42 128 79 231 82 229 2 -3 0 -90 -6 -193 -6 -104 -11 -271 -11
-371 l0 -183 125 0 125 0 0 535 0 535 -168 0 -167 0 -114 -360 c-63 -198 -118
-365 -121 -370 -4 -6 -60 156 -125 360 l-119 370 -168 0 -168 0 0 -535z"/>
<path d="M13554 256 c-105 -47 -95 -184 16 -217 109 -33 207 57 167 153 -9 20
-26 44 -39 52 -35 23 -107 29 -144 12z"/>
</g>
</svg>
