<?xml version="1.0" standalone="no"?>
<!DOCTYPE svg PUBLIC "-//W3C//DTD SVG 20010904//EN"
 "http://www.w3.org/TR/2001/REC-SVG-20010904/DTD/svg10.dtd">
<svg version="1.0" xmlns="http://www.w3.org/2000/svg"
 width="1763.000000pt" height="709.000000pt" viewBox="0 0 1763.000000 709.000000"
 preserveAspectRatio="xMidYMid meet">

<g transform="translate(0.000000,709.000000) scale(0.100000,-0.100000)"
fill="#000000" stroke="none">
<path d="M6910 6678 c-305 -225 -654 -483 -775 -572 l-220 -162 3 378 2 378
-220 0 -220 0 0 -538 0 -538 -2365 -1743 c-1301 -959 -2365 -1745 -2365 -1748
0 -3 12 3 28 13 15 10 1030 654 2257 1432 1227 778 2278 1446 2338 1483 l107
69 -2 -1198 -3 -1197 -349 -132 c-239 -91 -352 -129 -357 -122 -4 8 -33 -7
-82 -42 l-75 -54 434 -3 434 -2 0 -315 0 -315 -2205 0 -2205 0 0 -235 0 -235
4230 0 4230 0 0 1289 0 1290 58 21 c31 12 494 181 1029 376 l972 355 1638
-800 1638 -800 3 -870 2 -871 1075 0 1075 0 0 240 0 240 -840 0 -840 0 0 630
0 630 244 2 245 3 -2120 1017 -2120 1018 -407 -154 c-224 -85 -437 -166 -474
-180 l-68 -25 -1557 1199 c-1294 997 -1563 1200 -1588 1199 -23 0 -153 -91
-585 -411z m1485 -763 l890 -490 -839 -3 c-460 -1 -1212 -1 -1669 0 l-831 3
775 492 c426 270 777 491 780 490 3 -1 405 -222 894 -492z m1670 -920 c284
-157 526 -290 537 -296 11 -6 18 -12 16 -15 -8 -7 -1062 -404 -1075 -404 -11
0 -13 95 -13 500 0 278 4 500 9 500 5 0 241 -128 526 -285z m-2635 -1354 l0
-249 -157 -63 c-146 -58 -165 -63 -250 -67 l-93 -4 0 316 0 316 250 0 250 0 0
-249z m628 123 l-3 -127 -200 -78 c-109 -44 -200 -79 -202 -79 -2 0 -3 92 -3
205 l0 205 205 0 206 0 -3 -126z m2 -974 l0 -330 -205 0 -205 0 0 330 0 330
205 0 205 0 0 -330z m-630 -5 l0 -325 -255 0 -255 0 0 188 0 188 248 137 c136
75 250 137 255 137 4 0 7 -146 7 -325z"/>
<path d="M10960 2630 l0 -880 950 0 950 0 0 880 0 880 -950 0 -950 0 0 -880z
m830 325 l0 -205 -245 0 -245 0 0 205 0 205 245 0 245 0 0 -205z m720 0 l0
-205 -245 0 -245 0 0 205 0 205 245 0 245 0 0 -205z m-720 -670 l0 -245 -245
0 -245 0 0 245 0 245 245 0 245 0 0 -245z m720 0 l0 -245 -245 0 -245 0 0 245
0 245 245 0 245 0 0 -245z"/>
<path d="M2219 1012 c-205 -54 -319 -231 -319 -497 0 -171 45 -301 134 -391
158 -157 429 -163 600 -13 61 54 122 177 137 279 14 88 6 255 -15 321 -53 170
-169 278 -330 308 -80 15 -129 13 -207 -7z m224 -205 c73 -55 108 -208 87
-380 -19 -154 -73 -226 -174 -235 -68 -5 -117 16 -154 67 -42 57 -57 127 -56
261 1 228 63 325 206 317 42 -2 65 -10 91 -30z"/>
<path d="M4232 1019 c-212 -41 -332 -222 -332 -499 0 -130 13 -205 50 -287 53
-117 161 -198 300 -223 134 -25 336 14 437 84 l48 33 3 211 2 212 -205 0 -205
0 0 -80 0 -80 85 0 85 0 0 -80 c0 -75 -1 -80 -27 -97 -17 -12 -51 -19 -97 -21
-59 -3 -79 1 -116 20 -87 45 -114 116 -114 303 0 138 10 191 46 245 36 52 71
73 133 78 94 8 159 -36 179 -120 l6 -28 116 0 116 0 -7 37 c-12 66 -45 139
-80 181 -80 93 -267 142 -423 111z"/>
<path d="M7009 1012 c-205 -54 -319 -231 -319 -497 0 -171 45 -301 134 -391
158 -157 429 -163 600 -13 61 54 122 177 137 279 14 88 6 255 -15 321 -53 170
-169 278 -330 308 -80 15 -129 13 -207 -7z m224 -205 c73 -55 108 -208 87
-380 -19 -154 -73 -226 -174 -235 -68 -5 -117 16 -154 67 -42 57 -57 127 -56
261 1 228 63 325 206 317 42 -2 65 -10 91 -30z"/>
<path d="M7965 1015 c-174 -37 -265 -131 -265 -269 1 -142 91 -228 335 -316
111 -40 151 -64 170 -100 22 -43 18 -76 -14 -112 -24 -28 -36 -32 -90 -36
-113 -8 -191 43 -191 126 l0 32 -120 0 -120 0 0 -33 c0 -94 75 -202 175 -251
159 -78 393 -70 507 17 80 61 115 140 104 235 -17 141 -99 213 -354 307 -125
46 -162 76 -162 132 0 41 20 67 67 92 31 16 109 14 144 -4 32 -17 69 -69 69
-97 0 -16 12 -18 121 -18 l121 0 -7 43 c-11 62 -29 100 -71 146 -51 57 -108
89 -190 106 -83 18 -149 18 -229 0z"/>
<path d="M14922 1020 c-213 -45 -331 -224 -332 -500 0 -187 37 -305 126 -400
180 -193 574 -142 677 88 14 31 29 76 33 100 l7 42 -120 0 -120 0 -7 -38 c-12
-79 -72 -122 -168 -122 -109 0 -161 58 -179 201 -13 99 -5 254 16 325 9 31 28
63 50 84 32 31 42 35 103 38 50 2 76 -1 102 -15 44 -23 80 -76 80 -119 l0 -34
120 0 c137 0 132 -4 104 91 -33 114 -115 200 -228 240 -64 22 -202 32 -264 19z"/>
<path d="M15839 1012 c-205 -54 -319 -231 -319 -497 0 -171 45 -301 134 -391
158 -157 429 -163 600 -13 61 54 122 177 137 279 14 88 6 255 -15 321 -53 170
-169 278 -330 308 -80 15 -129 13 -207 -7z m224 -205 c73 -55 108 -208 87
-380 -19 -154 -73 -226 -174 -235 -68 -5 -117 16 -154 67 -42 57 -57 127 -56
261 1 228 63 325 206 317 42 -2 65 -10 91 -30z"/>
<path d="M10 515 l0 -505 120 0 120 0 0 175 0 175 98 0 c183 0 298 36 372 116
58 63 73 105 74 204 0 107 -25 169 -95 235 -95 89 -168 105 -471 105 l-218 0
0 -505z m477 305 c18 -10 40 -34 49 -52 22 -43 22 -124 0 -166 -25 -48 -67
-62 -186 -62 l-100 0 0 150 0 150 103 0 c84 0 108 -4 134 -20z"/>
<path d="M930 515 l0 -505 120 0 120 0 0 215 0 215 180 0 180 0 0 -215 0 -215
120 0 120 0 0 505 0 505 -120 0 -120 0 0 -200 0 -200 -180 0 -180 0 0 200 0
200 -120 0 -120 0 0 -505z"/>
<path d="M2920 515 l0 -505 120 0 120 0 2 311 3 311 176 -308 175 -309 122 -3
122 -3 0 506 0 505 -120 0 -120 0 0 -312 c-1 -260 -3 -310 -14 -296 -7 10 -88
150 -180 313 l-168 295 -119 0 -119 0 0 -505z"/>
<path d="M4840 930 l0 -90 145 0 145 0 0 -415 0 -415 120 0 120 0 0 415 0 415
155 0 155 0 0 90 0 90 -420 0 -420 0 0 -90z"/>
<path d="M5790 516 l0 -506 120 0 120 0 0 175 0 175 68 0 67 0 88 -175 87
-175 130 0 c71 0 130 2 130 4 0 3 -48 95 -106 206 -58 111 -105 202 -103 203
2 2 23 15 47 30 90 58 127 144 120 281 -4 72 -9 92 -34 133 -16 27 -51 62 -78
80 -88 60 -124 66 -403 71 l-253 4 0 -506z m470 299 c40 -20 60 -63 60 -125 0
-110 -41 -140 -190 -140 l-100 0 0 140 0 140 100 0 c71 0 110 -5 130 -15z"/>
<path d="M8600 515 l0 -505 120 0 120 0 0 505 0 505 -120 0 -120 0 0 -505z"/>
<path d="M9020 515 l0 -505 120 0 120 0 2 311 3 311 176 -308 175 -309 122 -3
122 -3 0 506 0 505 -120 0 -120 0 0 -312 c-1 -260 -3 -310 -14 -296 -7 10 -88
150 -180 313 l-168 295 -119 0 -119 0 0 -505z"/>
<path d="M10020 515 l0 -505 120 0 120 0 0 215 0 215 180 0 180 0 0 -215 0
-215 120 0 120 0 0 505 0 505 -120 0 -120 0 0 -200 0 -200 -180 0 -180 0 0
200 0 200 -120 0 -120 0 0 -505z"/>
<path d="M10941 1013 c0 -5 75 -231 168 -503 l167 -495 131 -3 131 -3 32 93
c17 51 94 279 170 506 l139 412 -134 0 -134 0 -11 -37 c-5 -21 -49 -182 -97
-358 -47 -176 -89 -323 -92 -327 -4 -4 -51 157 -106 357 l-99 365 -133 0 c-73
0 -133 -3 -132 -7z"/>
<path d="M11970 515 l0 -505 120 0 120 0 0 505 0 505 -120 0 -120 0 0 -505z"/>
<path d="M12390 515 l0 -505 345 0 345 0 0 90 0 90 -225 0 -225 0 0 125 0 125
190 0 190 0 0 90 0 90 -190 0 -190 0 0 110 0 110 225 0 225 0 0 90 0 90 -345
0 -345 0 0 -505z"/>
<path d="M13190 515 l0 -505 120 0 120 0 2 311 3 311 176 -308 175 -309 122
-3 122 -3 0 506 0 505 -120 0 -120 0 0 -312 c-1 -260 -3 -310 -14 -296 -7 10
-88 150 -180 313 l-168 295 -119 0 -119 0 0 -505z"/>
<path d="M16540 515 l0 -505 120 0 120 0 0 102 c0 57 -5 197 -11 313 -17 332
-21 334 115 -65 l119 -350 77 0 c65 0 79 3 85 18 4 9 56 163 117 342 60 179
114 332 119 340 5 9 7 -12 4 -55 -10 -132 -25 -476 -25 -561 l0 -84 120 0 120
0 0 505 0 506 -157 -3 -157 -3 -111 -347 c-60 -191 -113 -344 -116 -340 -4 4
-55 161 -115 349 l-109 343 -157 0 -158 0 0 -505z"/>
<path d="M14265 216 c-48 -21 -70 -53 -70 -101 0 -107 147 -153 226 -69 31 33
33 101 4 134 -41 46 -105 60 -160 36z"/>
</g>
</svg>
